<?xml version="1.0" standalone="no"?>
<!DOCTYPE svg PUBLIC "-//W3C//DTD SVG 20010904//EN"
 "http://www.w3.org/TR/2001/REC-SVG-20010904/DTD/svg10.dtd">
<svg version="1.0" xmlns="http://www.w3.org/2000/svg"
 width="390.000000pt" height="510.000000pt" viewBox="0 0 390.000000 510.000000"
 preserveAspectRatio="xMidYMid meet">
<g transform="translate(0.000000,510.000000) scale(0.100000,-0.100000)"
fill="#ff0000" stroke="none">
<path d="M2750 5060 c-19 -11 -69 -31 -112 -45 -42 -14 -97 -40 -122 -56 -48
-32 -106 -92 -106 -111 0 -17 76 -3 175 33 77 28 97 41 162 102 40 38 73 76
73 83 0 19 -28 17 -70 -6z"/>
<path d="M2380 4743 c-251 -43 -410 -108 -635 -258 -227 -153 -314 -232 -445
-409 -186 -254 -247 -415 -291 -780 -9 -73 -17 -104 -31 -118 -20 -20 -20 -20
-45 4 -51 46 -67 101 -65 226 1 88 -2 112 -12 112 -33 0 -84 -130 -93 -235 -6
-80 8 -195 38 -313 26 -98 52 -159 107 -250 55 -91 80 -162 93 -265 33 -254
-65 -560 -205 -642 -49 -29 -85 -31 -126 -10 -67 35 -114 131 -130 265 -6 52
-15 131 -20 175 -13 105 -55 189 -130 258 -82 76 -210 141 -210 106 0 -6 16
-51 35 -98 44 -112 62 -223 46 -288 -7 -27 -36 -93 -66 -148 -64 -120 -107
-240 -137 -378 -17 -83 -21 -136 -22 -287 0 -208 7 -250 75 -452 75 -222 140
-328 285 -468 218 -209 509 -344 899 -415 195 -36 607 -30 825 11 482 92 909
344 1108 654 61 95 143 278 197 444 98 295 119 483 90 778 -20 202 -13 292 31
388 45 99 97 135 178 124 44 -6 46 -6 46 18 0 56 -125 138 -211 138 -116 0
-215 -63 -269 -173 -16 -34 -45 -123 -64 -199 -37 -149 -46 -169 -84 -211 -34
-36 -68 -35 -128 6 -37 24 -57 47 -82 97 -44 87 -49 156 -27 356 27 240 12
365 -57 496 -63 120 -164 192 -286 204 -97 10 -99 6 -53 -78 22 -40 47 -99 56
-130 16 -55 15 -59 -4 -103 -16 -36 -29 -50 -63 -65 -24 -11 -54 -20 -67 -20
-73 0 -182 96 -222 196 -19 48 -23 77 -23 154 0 85 3 102 30 154 40 82 101
146 229 241 133 99 242 211 281 290 22 47 29 75 32 144 5 114 -20 184 -93 260
-67 70 -85 66 -85 -19 0 -68 -16 -108 -64 -158 -42 -46 -77 -62 -129 -62 -85
0 -169 48 -231 132 -28 38 -31 49 -31 113 2 180 157 337 443 446 96 37 82 49
-50 48 -62 -1 -124 -4 -138 -6z"/>
<path d="M857 4253 c-2 -5 -14 -41 -26 -82 -28 -93 -83 -154 -196 -219 -145
-84 -224 -187 -248 -325 -20 -118 10 -208 110 -334 19 -24 38 -43 43 -43 4 0
10 57 12 128 5 180 15 196 188 297 127 74 147 108 160 263 8 102 -1 289 -15
311 -7 13 -22 14 -28 4z"/>
<path d="M3306 3535 c-9 -25 -7 -202 3 -266 5 -30 30 -102 56 -160 28 -62 57
-149 72 -214 14 -60 27 -112 29 -114 27 -28 78 176 71 286 -4 75 -14 100 -97
248 -19 32 -48 98 -66 145 -31 82 -55 109 -68 75z"/>
</g>
</svg>
